<svg width="127" height="91" viewBox="0 0 127 91" fill="none" xmlns="http://www.w3.org/2000/svg">
<path d="M63.4005 20C57.1302 30.9 51.7557 39.9 51.3576 40C51.059 40 48.3717 35.7 45.3859 30.5C42.4996 25.3 39.9118 21 39.6132 21C39.2151 21 0.797288 87.9 0.00106347 90.1C-0.197993 90.6 27.5703 91 63.5 91C99.7282 91 127.198 90.6 126.999 90.1C126.004 87.5 75.8415 0.0999986 75.3438 -1.35601e-06C74.9457 -1.35601e-06 69.5712 9 63.4005 20ZM78.3297 25.5C80.0217 28.5 81.4151 31.2 81.4151 31.5C81.4151 31.8 79.4245 32 77.0358 32C70.666 32 69.5712 30.2 72.5571 24.5C73.8509 22 75.0453 20 75.1448 20C75.1448 20 76.6377 22.5 78.3297 25.5ZM67.1825 41.1C67.7797 41.7 72.5571 42.5 77.832 42.9C83.0075 43.3 87.8844 44.2 88.6806 44.9C90.5716 46.4 109.681 80 109.084 80.6C108.785 80.8 93.3584 80.9 74.6471 80.8L40.7081 80.5L52.2533 60.2C58.6231 49.1 64.2962 40 64.8934 40C65.5901 40 66.5854 40.5 67.1825 41.1ZM42.6986 46.8L45.3859 51.5L36.8265 66.2L28.3666 81H23.0916C20.1057 81 17.7171 80.7 17.7171 80.4C17.7171 79.4 39.0161 42.1 39.6132 42C39.9118 42 41.3052 44.1 42.6986 46.8Z" fill="white"/>
</svg>
